<?xml version="1.0" encoding="UTF-8"?>
<svg xmlns="http://www.w3.org/2000/svg" viewBox="0 0 256 256">
  <path d="m200.37,101.67c-5.47-2.59-10.94-4.61-16.42-6.62-5.47-2.02-10.94-4.61-15.84-7.2-9.79-5.47-20.16-9.5-30.82-12.1-.29,10.37,0,25.34-.29,35.42-.58,2.88-.86,6.05-2.02,8.64-1.15,2.59-2.88,5.18-6.91,6.34-.86-2.59-.86-4.61-.86-6.62.29-2.02.58-4.03.58-6.05.58-11.81.29-24.48-.58-36.29-11.23,12.38-21.31,25.63-31.97,38.3-10.94,13.54-22.75,26.21-36.86,37.44-2.88,1.73-5.47,3.46-8.35,4.61-2.88,1.15-6.05,1.73-9.5.58-2.3-1.15-4.03-2.59-4.03-7.78,5.76,2.3,9.79.86,13.25-1.44,9.5-6.05,24.48-21.89,29.09-27.36,10.66-12.67,29.66-36.29,39.17-47.81,2.88-2.88,6.62-6.62,9.5-8.93v-5.47c-13.25,3.46-35.42,11.52-50.97,16.7-1.73-2.88-.86-4.9.58-6.34l2.3-2.59c.86-.86,1.73-1.44,2.3-2.3,15.26-5.47,30.82-10.94,45.79-15.55.29-4.32.86-8.64,1.15-11.23.86-4.03,2.59-7.49,6.62-9.5,2.3-.58,4.03.58,5.18,2.3l-.86,4.61c-1.15,3.74-2.59,7.78-2.59,11.81,6.62-1.73,14.11-3.46,21.89-4.61,7.78-1.44,16.13-2.59,24.19-2.59,2.02,1.15,1.73,3.46.29,4.9l-3.74,2.59c-.58,0-.86.29-1.44.86-14.11,1.73-27.65,4.32-41.18,8.06,0,2.88.29,8.35,0,11.23,13.25,2.3,25.34,7.49,36.86,13.25,11.52,5.47,22.75,10.94,34.85,14.98,4.61,2.88,10.08,7.2,11.52,12.67.58,2.59-.86,5.76-4.61,3.74-4.61-4.61-9.79-7.78-15.26-10.66Zm-48.38,87.84c3.17,2.59,6.34,5.47,8.64,8.64,1.73,3.17,3.17,6.05,2.88,10.08-.29,4.61-2.59,8.06-5.47,11.52-9.79,10.94-27.94,20.74-42.62,21.6-7.2.58-14.69-.58-21.02-5.47-4.9-3.74-6.05-8.35-4.32-13.54,2.59-7.2,10.94-10.08,16.13-14.97,9.79-6.91,19.87-12.96,29.95-18.72-1.44-1.15-3.17-2.3-4.9-3.17-2.02-1.15-4.32-2.59-6.05-4.03-2.3-2.02-4.32-4.61-4.9-8.06,0-3.74,2.88-7.2,6.34-8.64,6.33-4.32,13.25-8.93,18.43-14.69-.29-2.3-1.73-3.46-3.74-4.32-2.3-1.15-4.9-1.44-6.91-2.3-8.35-1.73-19.3-2.02-27.65,0l-2.88-.86c-.86-.29-1.73-.86-2.02-2.3-.29-3.17,2.88-5.47,4.9-6.34,12.38-3.17,26.78-1.15,38.02,2.88,1.73.86,3.46,1.73,4.9,2.88,1.73,1.15,3.17,2.59,4.03,4.61.58,2.88,1.15,7.78-.86,10.37-3.17,4.03-7.49,7.2-11.52,9.79-4.03,2.59-8.35,4.9-12.38,7.78-.58.86-.29,2.02,0,2.3,2.3,2.3,4.9,3.74,7.78,5.18,2.59,1.44,5.47,2.88,7.78,4.61,16.42-8.35,32.83-15.26,49.82-21.89,2.59,0,5.18.29,6.33,2.02,0,2.59-2.02,3.74-3.17,4.61-15.84,5.47-30.82,12.67-45.5,20.45Zm-4.61,7.78l-3.74-3.17c-15.84,8.64-31.1,18.72-44.93,30.82-.86.86-.29,2.88.58,3.74,4.61,3.46,10.37,4.32,16.13,3.46,12.1-1.73,27.36-8.93,35.42-18.72,1.44-1.73,3.46-3.74,3.46-6.34s-.86-4.32-2.88-6.34c-1.15-1.44-2.59-2.3-4.03-3.46Z"/>
</svg>
